<svg id="Layer_1" data-name="Layer 1" xmlns="http://www.w3.org/2000/svg" viewBox="0 0 129.1 56.3"><defs><style>.cls-1{fill:#fff;}.cls-2{fill:#26231e;}.cls-3{fill:#06928a;}</style></defs><title>Kitemark_1_regulated (1)</title><path class="cls-1" d="M31.67,41.83C32,41.49,33,40.31,33.32,40a19.32,19.32,0,0,0,0-23.61c-.35-.46-.74-.9-1.13-1.33,0,0,9.88-.53,9.86-.56l77.41-.17L115.3,28l4.15,13.73-77.16-.17ZM9.78,28.15A18.26,18.26,0,0,1,28,9.92c4.62,0,9.35,1.36,12.73,4.5A19.35,19.35,0,0,1,42.46,17a18.23,18.23,0,0,1,0,22.28c-.51.66-.19,1.37-.79,2l-.41.42a19.06,19.06,0,0,1-13.12,5.21C18.07,46.88,9.78,38.21,9.78,28.15Z"/><path class="cls-2" d="M115.68,28l4.49-14.14H41.23a19.32,19.32,0,1,0,.37,28.28h78.58ZM10,28.19A18.24,18.24,0,0,1,42.69,17.05a18.23,18.23,0,0,1,0,22.28A18.62,18.62,0,0,1,41,41.23h0a18.24,18.24,0,0,1-31-13ZM42.68,41c.3-.34.6-.69.87-1a19.32,19.32,0,0,0,0-23.61c-.35-.46-.74-.9-1.13-1.33L42.35,15h76.34L114.54,28l4.15,13.05h-76Z"/><path class="cls-2" d="M59.59,33H58.22l-2.67-3.84h-.47V33H53.95V24h1.37a4.78,4.78,0,0,1,2.39.42,2.51,2.51,0,0,1,1.19,2.16,2.47,2.47,0,0,1-2.18,2.54Zm-4.51-4.77h.36c1.15,0,2.41-.22,2.41-1.66S56.5,25,55.38,25h-.3Z"/><path class="cls-2" d="M61.27,30.41A1.77,1.77,0,0,0,63,32.28a1.84,1.84,0,0,0,1.68-1.09l.91.52A2.93,2.93,0,0,1,63,33.24a2.74,2.74,0,0,1-2.77-3c0-1.73.93-3,2.74-3s2.63,1.32,2.63,3v.17Zm3.21-.82a1.52,1.52,0,0,0-1.55-1.41,1.61,1.61,0,0,0-1.6,1.41Z"/><path class="cls-2" d="M72.91,32.94c0,1.94-.55,3.33-2.74,3.33a2.51,2.51,0,0,1-2.72-2.55h1.08a1.53,1.53,0,0,0,1.68,1.59c1.33,0,1.61-.91,1.61-2.07V32.17h0a2.33,2.33,0,0,1-1.91,1.07,2.77,2.77,0,0,1-2.69-3,2.76,2.76,0,0,1,2.65-2.95,2.28,2.28,0,0,1,2,1.13h0v-1h1.08Zm-1-2.71a1.82,1.82,0,1,0-3.61,0,1.82,1.82,0,1,0,3.61,0Z"/><path class="cls-2" d="M76.1,27.42v3.12c0,.9.23,1.7,1.3,1.7s1.3-.79,1.3-1.7V27.42h1.08v3.24c0,1.54-.72,2.59-2.38,2.59S75,32.19,75,30.65V27.42Z"/><path class="cls-2" d="M83.08,33H82V22.61h1.08Z"/><path class="cls-2" d="M90.62,33H89.53v-.88h0a2.31,2.31,0,0,1-1.91,1.07,2.78,2.78,0,0,1-2.69-3,2.76,2.76,0,0,1,2.66-2.95,2.3,2.3,0,0,1,1.95,1.11h0v-.94h1.08Zm-1-2.81a1.82,1.82,0,1,0-3.61,0,1.82,1.82,0,1,0,3.61,0Z"/><path class="cls-2" d="M94,33H92.9V28.43h-.59v-1h.59V25.26H94v2.15H95v1H94Z"/><path class="cls-2" d="M97,30.41a1.77,1.77,0,0,0,1.7,1.86,1.84,1.84,0,0,0,1.68-1.09l.91.52a2.93,2.93,0,0,1-2.61,1.54,2.74,2.74,0,0,1-2.77-3c0-1.73.93-3,2.74-3s2.63,1.32,2.63,3v.17Zm3.21-.82a1.52,1.52,0,0,0-1.55-1.41,1.61,1.61,0,0,0-1.6,1.41Z"/><path class="cls-2" d="M107.14,32.17h0a2.32,2.32,0,0,1-1.91,1.07,2.77,2.77,0,0,1-2.69-3,2.76,2.76,0,0,1,2.65-2.95,2.31,2.31,0,0,1,2,1.11h0V22.61h1.08V33h-1.08Zm.06-1.94a1.82,1.82,0,1,0-3.61,0,1.82,1.82,0,1,0,3.61,0Z"/><path class="cls-2" d="M14.39,24.54h1.18v8.23H14.39Zm-.29-1.81a.83.83,0,0,1,.26-.62.86.86,0,0,1,.62-.25.87.87,0,0,1,.63.25.83.83,0,0,1,.26.62.84.84,0,0,1-.25.62.87.87,0,0,1-.64.25.86.86,0,0,1-.63-.25.84.84,0,0,1-.25-.62"/><path class="cls-2" d="M23.81,28.7a3.92,3.92,0,0,0-.73-2.51,2.43,2.43,0,0,0-2-.91,2.55,2.55,0,0,0-2.06.89,3.66,3.66,0,0,0-.75,2.43,3.75,3.75,0,0,0,.8,2.52,2.65,2.65,0,0,0,2.12.94,2.31,2.31,0,0,0,1.93-.89,3.93,3.93,0,0,0,.69-2.47m-6.67,8.2V24.54h1.1v1.54a3.52,3.52,0,0,1,1.23-1.37,3.14,3.14,0,0,1,1.71-.48A3.53,3.53,0,0,1,24,25.45,4.75,4.75,0,0,1,25,28.68a4.79,4.79,0,0,1-1,3.23,3.46,3.46,0,0,1-2.76,1.21,3.23,3.23,0,0,1-1.75-.48,3.53,3.53,0,0,1-1.24-1.4V36.9Z"/><path class="cls-2" d="M25.8,31.3l1.09-.62a2,2,0,0,0,2,1.38,1.71,1.71,0,0,0,1.15-.37,1.22,1.22,0,0,0,.43-1q0-.95-1.68-1.6L28.53,29a5.19,5.19,0,0,1-1.82-1.05,1.86,1.86,0,0,1-.52-1.34,2.22,2.22,0,0,1,.74-1.72,2.75,2.75,0,0,1,1.92-.67,3.18,3.18,0,0,1,1.71.44,2.53,2.53,0,0,1,1,1.24l-1,.58a1.67,1.67,0,0,0-.65-.89,2,2,0,0,0-1.11-.31,1.4,1.4,0,0,0-1,.35,1.12,1.12,0,0,0-.38.87,1.07,1.07,0,0,0,.38.84,5.08,5.08,0,0,0,1.58.73,4.25,4.25,0,0,1,1.82,1,2.32,2.32,0,0,1,.47,1.54,2.24,2.24,0,0,1-.81,1.81,3.27,3.27,0,0,1-2.17.68,3.31,3.31,0,0,1-1.8-.48A2.68,2.68,0,0,1,25.8,31.3"/><path class="cls-2" d="M37.14,32.06a3.06,3.06,0,0,0,2.3-1,3.55,3.55,0,0,0,0-4.81,3.19,3.19,0,0,0-4.59,0,3.55,3.55,0,0,0,0,4.81,3,3,0,0,0,2.29,1m0,1.07a4.22,4.22,0,0,1-1.69-.35,4.76,4.76,0,0,1-1.47-1A4.17,4.17,0,0,1,33,30.37a4.48,4.48,0,0,1-.32-1.71A4.42,4.42,0,0,1,33,27a4.41,4.41,0,0,1,4.09-2.73,4.54,4.54,0,0,1,1.73.33,4.45,4.45,0,0,1,1.46,1,4.41,4.41,0,0,1,1,4.83,4.3,4.3,0,0,1-1,1.42,4.58,4.58,0,0,1-1.48,1,4.43,4.43,0,0,1-1.73.35"/><path class="cls-3" d="M41.66,32.19a.93.93,0,1,1,.27.67.91.91,0,0,1-.27-.67"/></svg>