<svg id="Layer_1" data-name="Layer 1" xmlns="http://www.w3.org/2000/svg" xmlns:xlink="http://www.w3.org/1999/xlink" viewBox="0 0 570.47 88"><defs><style>.cls-1,.cls-2,.cls-4{fill:#22201d;}.cls-1{clip-rule:evenodd;}.cls-3{fill:#fff;}.cls-4{fill-rule:evenodd;}.cls-5{clip-path:url(#clip-path);}.cls-6{clip-path:url(#clip-path-2);}</style><clipPath id="clip-path"><path class="cls-1" d="M53.9,71H34.16a.72.72,0,0,1-.72-.72V36.71a.9.9,0,0,0-.9-.9H15a.72.72,0,0,1-.72-.72V17.72A.72.72,0,0,1,15,17H73a.72.72,0,0,1,.72.72V35.09a.72.72,0,0,1-.72.72H55.33a.72.72,0,0,0-.72.72V70.28A.72.72,0,0,1,53.9,71Z"/></clipPath><clipPath id="clip-path-2"><rect class="cls-2" x="-433.18" y="-330.05" width="885.05" height="720.18"/></clipPath></defs><title>Trust-Logo-Horizontal-Reverse</title><rect class="cls-3" width="88" height="88" rx="10" ry="10"/><path class="cls-4" d="M53.9,71H34.16a.72.72,0,0,1-.72-.72V36.71a.9.9,0,0,0-.9-.9H15a.72.72,0,0,1-.72-.72V17.72A.72.72,0,0,1,15,17H73a.72.72,0,0,1,.72.72V35.09a.72.72,0,0,1-.72.72H55.33a.72.72,0,0,0-.72.72V70.28A.72.72,0,0,1,53.9,71Z"/><g class="cls-5"><rect class="cls-2" x="-433.18" y="-330.05" width="885.05" height="720.18"/><g class="cls-6"><rect class="cls-2" x="13.4" y="16.1" width="61.2" height="55.8"/></g></g><path class="cls-3" d="M150.1,29.84H137.4V64.2h-8.95V29.84H116V22.58H150.1Z"/><path class="cls-3" d="M178.73,35.59q2.7,2.89,2.7,9.23V64.2H172.8V44.76q0-2.8-1.19-3.94A5,5,0,0,0,168,39.68a5.35,5.35,0,0,0-5,2.52v22h-8.63V22.6H163v14a10.58,10.58,0,0,1,3.62-2.89,10.29,10.29,0,0,1,4.53-1A9.86,9.86,0,0,1,178.73,35.59Z"/><path class="cls-3" d="M213.62,51.54H194.07a7.59,7.59,0,0,0,2.4,4.59,7.12,7.12,0,0,0,4.92,1.7,10.07,10.07,0,0,0,4.13-.84,8.52,8.52,0,0,0,3.25-2.53l4.14,4.77a12.64,12.64,0,0,1-4.76,3.95,15.91,15.91,0,0,1-7.33,1.6,16.34,16.34,0,0,1-8.25-2,13.76,13.76,0,0,1-5.37-5.43,15.55,15.55,0,0,1-1.87-7.57V48.68a18.83,18.83,0,0,1,1.74-8.26,13.3,13.3,0,0,1,5-5.68,14.41,14.41,0,0,1,7.78-2,14.19,14.19,0,0,1,7.46,1.86A11.86,11.86,0,0,1,212,39.83a18.82,18.82,0,0,1,1.6,8Zm-8.46-6.46a5.87,5.87,0,0,0-1.39-4,5.1,5.1,0,0,0-4-1.46A4.78,4.78,0,0,0,196,41.28a8.79,8.79,0,0,0-1.81,4.49h11Z"/><path class="cls-3" d="M261.16,29.84H248.46V64.2h-8.95V29.84H227V22.58h34.13Z"/><path class="cls-3" d="M281.5,32.8a7.11,7.11,0,0,1,1.2.25l-.11,8.34a22.85,22.85,0,0,0-3.06-.23q-4.63,0-6,3.06v20h-8.63V33.27H273l.26,3.74a8.58,8.58,0,0,1,2.9-3.2,7.25,7.25,0,0,1,4-1.11A10.43,10.43,0,0,1,281.5,32.8Z"/><path class="cls-3" d="M314.08,33.27V64.2H306L305.75,61a9.86,9.86,0,0,1-3.57,2.82,11.34,11.34,0,0,1-4.83,1,10.07,10.07,0,0,1-7.56-2.8q-2.73-2.81-2.73-8.69v-20h8.6V53.34a4.49,4.49,0,0,0,1.13,3.37,4.32,4.32,0,0,0,3.13,1.09q4,0,5.52-2.77V33.27Z"/><path class="cls-3" d="M319.16,42.36a8.38,8.38,0,0,1,1.5-4.83A10.37,10.37,0,0,1,325,34a15.52,15.52,0,0,1,6.6-1.31A17.56,17.56,0,0,1,338.54,34a10.46,10.46,0,0,1,4.57,3.54,8.8,8.8,0,0,1,1.6,5.19h-8.63A3.79,3.79,0,0,0,335,39.8a4.85,4.85,0,0,0-3.4-1,4.76,4.76,0,0,0-3,.89,2.78,2.78,0,0,0-1.13,2.29,2.5,2.5,0,0,0,1.27,2.17,12.75,12.75,0,0,0,4.33,1.4,29.61,29.61,0,0,1,6.2,1.78,10,10,0,0,1,4,3,7.85,7.85,0,0,1,1.5,4.95,7.94,7.94,0,0,1-1.62,4.87,10.63,10.63,0,0,1-4.6,3.38,18.06,18.06,0,0,1-6.93,1.23,15.92,15.92,0,0,1-7.22-1.53,11.66,11.66,0,0,1-4.63-3.93,8.93,8.93,0,0,1-1.59-5h8.15a4,4,0,0,0,1.6,3.3,6.58,6.58,0,0,0,3.89,1.07,5.79,5.79,0,0,0,3.39-.84,2.65,2.65,0,0,0,1.19-2.27,2.23,2.23,0,0,0-.53-1.5A4.87,4.87,0,0,0,334,52.91a25.47,25.47,0,0,0-3.85-1.09Q319.16,49.48,319.16,42.36Z"/><path class="cls-3" d="M366.36,57.48V64a15,15,0,0,1-5.09.8q-9.1,0-9.1-9.26v-16h-4.37V33.27h4.38V25.61h8.64v7.66H366v6.29H360.8V54.51a3.4,3.4,0,0,0,.71,2.5,3.52,3.52,0,0,0,2.44.67A12.26,12.26,0,0,0,366.36,57.48Z"/><path class="cls-3" d="M411,24.34a13,13,0,0,1,5.47,4.93,13.58,13.58,0,0,1,1.9,7.18,12.89,12.89,0,0,1-1.89,7,12.25,12.25,0,0,1-5.46,4.63,20.17,20.17,0,0,1-8.43,1.63h-7.37V64.17h-9V22.55h16.35A18.58,18.58,0,0,1,411,24.34Zm-3.34,16.51a5.77,5.77,0,0,0,1.66-4.35,7.75,7.75,0,0,0-.72-3.35,5.61,5.61,0,0,0-2.23-2.43,7.19,7.19,0,0,0-3.77-.91h-7.37V42.44h7.37A7,7,0,0,0,407.68,40.85Z"/><path class="cls-3" d="M438.77,32.77A7.45,7.45,0,0,1,440,33l-.12,8.35a22.08,22.08,0,0,0-3.06-.23q-4.63,0-6,3.06v20h-8.63V33.24h8.12l.26,3.74a8.53,8.53,0,0,1,2.9-3.2,7.23,7.23,0,0,1,4-1.11A10.63,10.63,0,0,1,438.77,32.77Z"/><path class="cls-3" d="M443.74,40.3a13.12,13.12,0,0,1,5-5.6,16.55,16.55,0,0,1,15.88,0,13.12,13.12,0,0,1,5.06,5.6,18.43,18.43,0,0,1,1.73,8.12V49a18.36,18.36,0,0,1-1.73,8.11,13.17,13.17,0,0,1-5,5.59,16.54,16.54,0,0,1-15.88,0,13.12,13.12,0,0,1-5.06-5.59A18.33,18.33,0,0,1,442,49v-.6A18.4,18.4,0,0,1,443.74,40.3Zm8.36,15.11a5,5,0,0,0,4.66,2.39,5,5,0,0,0,4.6-2.4A12.19,12.19,0,0,0,462.82,49v-.6A12.27,12.27,0,0,0,461.36,42a5,5,0,0,0-4.66-2.43,5,5,0,0,0-4.6,2.44,12.32,12.32,0,0,0-1.46,6.36V49A12.19,12.19,0,0,0,452.1,55.41Z"/><path class="cls-3" d="M485,63.55q0,5.32-2.86,8.18t-8,2.86a17.08,17.08,0,0,1-4.23-.49V67.26a14.1,14.1,0,0,0,2.63.26q3.83,0,3.83-4V33.24H485Zm-1-41.05a4.16,4.16,0,0,1,1.33,3.19A4.17,4.17,0,0,1,484,28.87a5.51,5.51,0,0,1-7,0,4.17,4.17,0,0,1-1.33-3.19A4.17,4.17,0,0,1,477,22.49a5.51,5.51,0,0,1,7,0Z"/><path class="cls-3" d="M517.88,51.51H498.33a7.61,7.61,0,0,0,2.4,4.59,7.11,7.11,0,0,0,4.92,1.7,10,10,0,0,0,4.13-.84A8.49,8.49,0,0,0,513,54.42l4.14,4.77a12.62,12.62,0,0,1-4.76,3.95,15.88,15.88,0,0,1-7.33,1.6,16.35,16.35,0,0,1-8.25-2,13.75,13.75,0,0,1-5.37-5.43,15.55,15.55,0,0,1-1.87-7.57V48.65a18.84,18.84,0,0,1,1.74-8.26,13.3,13.3,0,0,1,5-5.67,14.46,14.46,0,0,1,7.78-2,14.23,14.23,0,0,1,7.46,1.86,11.88,11.88,0,0,1,4.69,5.28,18.8,18.8,0,0,1,1.6,8ZM509.43,45a5.89,5.89,0,0,0-1.39-4,5.09,5.09,0,0,0-4-1.46,4.77,4.77,0,0,0-3.84,1.63,8.78,8.78,0,0,0-1.82,4.49h11Z"/><path class="cls-3" d="M548.74,53.34A10.44,10.44,0,0,1,547,59.22a11.67,11.67,0,0,1-4.64,4.06,14.39,14.39,0,0,1-6.5,1.46,14.54,14.54,0,0,1-7.89-2,12.57,12.57,0,0,1-4.85-5.57,19.24,19.24,0,0,1-1.62-8.06v-.74a19.26,19.26,0,0,1,1.62-8.06A12.61,12.61,0,0,1,528,34.7a14.42,14.42,0,0,1,7.85-2,14.78,14.78,0,0,1,6.73,1.47,10.8,10.8,0,0,1,4.56,4.23,12.54,12.54,0,0,1,1.63,6.5h-8.09a5.57,5.57,0,0,0-1.34-3.77,4.63,4.63,0,0,0-3.66-1.49A4.38,4.38,0,0,0,531.33,42a14.45,14.45,0,0,0-1.17,6.36v.74a14.57,14.57,0,0,0,1.16,6.4c.78,1.54,2.23,2.32,4.39,2.32a5.15,5.15,0,0,0,3.57-1.2,4.21,4.21,0,0,0,1.37-3.26Z"/><path class="cls-3" d="M570.47,57.45v6.49a15,15,0,0,1-5.09.8q-9.09,0-9.09-9.26v-16h-4.37V33.24h4.37V25.58h8.63v7.66h5.2v6.29h-5.2V54.48a3.4,3.4,0,0,0,.71,2.5,3.51,3.51,0,0,0,2.43.67A12.67,12.67,0,0,0,570.47,57.45Z"/></svg>